<svg xmlns="http://www.w3.org/2000/svg" viewBox="0 0 1000 633.32"><title>behance-7</title><path fill="#353535" d="M403.58,454.5s94.63-7,94.63-118S420.79,171.36,322.72,171.36H0V791.53H322.72s197,6.23,197-183c0,0,8.58-154-116.15-154ZM299.49,281.59h23.23s43.86,0,43.86,64.52S340.79,420,311.52,420H142.19V281.59ZM313.6,681.31H142.19V515.57H322.72s65.38-.85,65.38,85.17c0,72.54-48.83,80-74.5,80.57ZM782.47,329.15c-238.5,0-238.29,238.29-238.29,238.29S527.82,804.51,782.47,804.51c0,0,212.21,12.12,212.21-164.92H885.54s3.64,66.67-99.43,66.67c0,0-109.15,7.32-109.15-107.89H998.32s35.16-269.22-215.85-269.22ZM675.76,515.57S689.08,420,784.89,420s94.59,95.58,94.59,95.58Zm229.15-231.3H649V207.9H904.91v76.37Z" transform="translate(0 -171.36)"/></svg>