<?xml version="1.0" encoding="UTF-8"?>
<svg id="Layer_2" data-name="Layer 2" xmlns="http://www.w3.org/2000/svg" viewBox="0 0 1000 633.33">
  <defs>
    <style>
      .cls-1 {
        fill: #fff;
      }
    </style>
  </defs>
  <g id="Layer_1-2" data-name="Layer 1">
    <path class="cls-1" d="m403.58,283.14s94.63-7,94.63-118S420.79,0,322.72,0H0v620.17h322.72s197,6.23,197-183c0,0,8.58-154-116.15-154v-.03Zm-104.08-172.91h23.23s43.86,0,43.86,64.52-25.79,73.89-55.06,73.89h-169.33V110.23h157.3Zm14.11,399.72h-171.41v-165.74h180.53s65.38-.85,65.38,85.17c0,72.54-48.83,80-74.5,80.57Zm468.87-352.16c-238.5,0-238.29,238.29-238.29,238.29,0,0-16.36,237.07,238.29,237.07,0,0,212.21,12.12,212.21-164.92h-109.14s3.64,66.67-99.43,66.67c0,0-109.15,7.32-109.15-107.89h321.36s35.16-269.22-215.85-269.22Zm-106.71,186.42s13.32-95.57,109.13-95.57,94.59,95.58,94.59,95.58h-203.72Zm229.15-231.31h-255.91V36.54h255.91v76.37h0Z"/>
  </g>
</svg>